<svg width="15" height="16" viewBox="0 0 15 16" fill="none" xmlns="http://www.w3.org/2000/svg">
<path d="M10.7538 3.58716C10.7688 3.32154 10.805 3.14654 10.8775 2.98591C10.9063 2.92279 10.9338 2.87091 10.9375 2.87091C10.9334 2.90663 10.9241 2.94157 10.91 2.97466C10.8569 3.13029 10.8482 3.34341 10.885 3.59029C10.9307 3.90404 10.9569 3.94966 11.29 4.28841C11.4463 4.44779 11.6275 4.64779 11.6938 4.73404L11.8132 4.89029L11.6938 4.77904C11.5475 4.64154 11.2107 4.37529 11.1363 4.33716C11.0863 4.31154 11.0788 4.31216 11.0482 4.34216C11.02 4.37029 11.0138 4.41279 11.01 4.61216C11.0038 4.92341 10.9613 5.12341 10.8588 5.32341C10.8025 5.43091 10.7938 5.40841 10.8444 5.28591C10.8819 5.19529 10.8857 5.15466 10.8857 4.85404C10.885 4.24841 10.8125 4.10279 10.39 3.85404C10.2627 3.77976 10.1317 3.71196 9.99754 3.65091C9.93145 3.62446 9.86733 3.59334 9.80566 3.55779C9.81816 3.54591 10.2307 3.66591 10.3963 3.72966C10.6432 3.82404 10.6838 3.83654 10.7138 3.82529C10.7338 3.81716 10.7438 3.75904 10.7538 3.58779" fill="white"/>
<path d="M5.53559 2.70724C5.38872 2.68412 5.38247 2.68224 5.45184 2.67099C5.58372 2.65099 5.89559 2.67849 6.11059 2.72912C6.61247 2.84787 7.06934 3.15224 7.55684 3.69162L7.68622 3.83537L7.87184 3.80537C8.65247 3.68037 9.44622 3.78037 10.1106 4.08537C10.2931 4.16912 10.5812 4.33599 10.6168 4.37912C10.6287 4.39287 10.65 4.48099 10.6637 4.57474C10.7137 4.89974 10.6887 5.14974 10.5887 5.33537C10.5343 5.43724 10.5312 5.46912 10.5675 5.55599C10.5968 5.62474 10.6781 5.67599 10.7587 5.67599C10.9237 5.67599 11.1018 5.41037 11.1837 5.04162L11.2168 4.89474L11.2812 4.96787C11.6368 5.36787 11.9156 5.91412 11.9637 6.30287L11.9762 6.40412L11.9162 6.31162C11.8309 6.17061 11.7157 6.05006 11.5787 5.95849C11.34 5.80162 11.0875 5.74787 10.42 5.71287C9.81747 5.68162 9.47622 5.63037 9.13809 5.52037C8.56247 5.33412 8.27184 5.08537 7.58809 4.19287C7.28434 3.79662 7.09684 3.57724 6.90997 3.40099C6.48622 2.99974 6.06872 2.78912 5.53497 2.70724M5.81997 4.62599C5.52247 4.21912 5.33872 3.59474 5.37809 3.12787L5.39059 2.98287L5.45809 2.99537C5.58559 3.01849 5.80497 3.09974 5.90747 3.16162C6.18872 3.33162 6.31122 3.55537 6.43497 4.13099C6.47122 4.29974 6.51934 4.49037 6.54122 4.55474C6.57622 4.65849 6.70997 4.90162 6.81809 5.05912C6.89622 5.17224 6.84434 5.22662 6.67184 5.21099C6.40809 5.18724 6.05059 4.94224 5.81997 4.62599ZM10.3925 7.65724C9.00247 7.10099 8.51247 6.61724 8.51247 5.80224C8.51247 5.68224 8.51684 5.58349 8.52184 5.58349C8.52684 5.58349 8.58059 5.62349 8.64122 5.67224C8.92309 5.89724 9.23872 5.99287 10.1125 6.11974C10.6268 6.19474 10.9162 6.25474 11.1831 6.34287C12.0318 6.62224 12.5562 7.19037 12.6818 7.96412C12.7181 8.18912 12.6968 8.61037 12.6381 8.83224C12.5912 9.00724 12.4493 9.32412 12.4112 9.33599C12.4012 9.33974 12.3906 9.29974 12.3881 9.24537C12.3737 8.95474 12.2262 8.67224 11.9787 8.46037C11.6968 8.21974 11.3181 8.02787 10.3925 7.65724ZM9.41684 7.88849C9.40022 7.78973 9.37768 7.69205 9.34934 7.59599L9.31372 7.49099L9.37997 7.56412C9.47122 7.66599 9.54247 7.79599 9.60434 7.96974C9.65059 8.10224 9.65559 8.14162 9.65559 8.35662C9.65559 8.56787 9.64934 8.61224 9.60622 8.73162C9.53872 8.91912 9.45434 9.05224 9.31247 9.19537C9.05934 9.45224 8.73247 9.59474 8.26184 9.65349C8.17997 9.66412 7.94122 9.68099 7.73122 9.69224C7.20247 9.71912 6.85434 9.77599 6.54184 9.88537C6.51362 9.89791 6.48332 9.90512 6.45247 9.90662C6.43997 9.89412 6.65247 9.76787 6.82872 9.68349C7.07684 9.56474 7.32372 9.49974 7.87622 9.40849C8.14997 9.36287 8.43184 9.30849 8.50372 9.28599C9.17997 9.07974 9.52809 8.54724 9.41622 7.88849" fill="white"/>
<path d="M10.0536 9.01416C9.8692 8.61916 9.8267 8.23791 9.92795 7.88229C9.93857 7.84479 9.95607 7.81354 9.96607 7.81354C10.0007 7.82598 10.0334 7.84346 10.0629 7.86541C10.1486 7.92229 10.3192 8.01854 10.7736 8.26479C11.3411 8.57229 11.6648 8.81104 11.8848 9.08354C12.0773 9.32104 12.1967 9.59291 12.2536 9.92416C12.2867 10.1117 12.2673 10.5629 12.2192 10.7517C12.0667 11.3473 11.7117 11.8148 11.2067 12.0879C11.159 12.1153 11.1095 12.1395 11.0586 12.1604C11.0511 12.1604 11.078 12.0923 11.1186 12.0092C11.2886 11.6554 11.3079 11.311 11.1792 10.9279C11.1004 10.6935 10.9398 10.4079 10.6154 9.92416C10.2386 9.36166 10.1467 9.21166 10.0536 9.01416ZM4.83295 11.1442C5.34857 10.711 5.99045 10.4035 6.57482 10.3092C6.8267 10.2685 7.2467 10.2842 7.47982 10.3435C7.85357 10.4392 8.18857 10.6523 8.36232 10.906C8.53232 11.1548 8.60545 11.371 8.68107 11.8523C8.71107 12.0423 8.74357 12.2329 8.75357 12.276C8.81045 12.5254 8.9217 12.7248 9.05982 12.8248C9.27795 12.9842 9.65357 12.9935 10.0236 12.8498C10.0622 12.8322 10.103 12.8196 10.1448 12.8123C10.1586 12.826 9.97232 12.9498 9.84045 13.0154C9.66357 13.1029 9.52295 13.1373 9.33607 13.1373C8.99732 13.1373 8.71607 12.966 8.48107 12.616C8.43482 12.5473 8.33107 12.341 8.24982 12.1579C8.00232 11.5954 7.88045 11.4248 7.59232 11.2373C7.34232 11.0742 7.01857 11.0448 6.77607 11.1629C6.4567 11.3192 6.36732 11.7248 6.59607 11.9817C6.6867 12.0842 6.85607 12.1723 6.99482 12.1892C7.05516 12.1973 7.11655 12.1924 7.17482 12.1748C7.2331 12.1571 7.28691 12.1272 7.3326 12.0869C7.37829 12.0467 7.41481 11.9971 7.43967 11.9415C7.46453 11.8859 7.47716 11.8257 7.4767 11.7648C7.4767 11.596 7.4117 11.4992 7.24732 11.4254C7.02232 11.3248 6.78107 11.4423 6.78232 11.6523C6.78232 11.7417 6.82232 11.7979 6.91232 11.8385C6.96982 11.8648 6.9717 11.8667 6.92482 11.8573C6.71857 11.8148 6.66982 11.5673 6.83545 11.4035C7.03482 11.2067 7.44607 11.2935 7.58732 11.5623C7.6467 11.6748 7.65357 11.8998 7.6017 12.0354C7.48607 12.3398 7.14795 12.4992 6.80545 12.4123C6.57232 12.3529 6.47795 12.2892 6.1967 12.001C5.70795 11.501 5.51857 11.4035 4.8142 11.2948L4.6792 11.2735L4.83295 11.1442Z" fill="white"/>
<path fill-rule="evenodd" clip-rule="evenodd" d="M2.54067 2.1867C4.17192 4.15545 5.29567 4.96795 5.42067 5.14045C5.52379 5.2817 5.48504 5.4092 5.30817 5.5092C5.21004 5.56483 5.00817 5.62108 4.90692 5.62108C4.79254 5.62108 4.75317 5.57733 4.75317 5.57733C4.68692 5.51483 4.65004 5.52545 4.30942 4.9242C4.01976 4.47382 3.72663 4.02568 3.43004 3.57983C3.40504 3.55608 3.40567 3.5567 4.26129 5.0792C4.39879 5.3967 4.28879 5.51295 4.28879 5.55795C4.28879 5.64983 4.26379 5.69858 4.14942 5.82483C3.95942 6.03608 3.87442 6.27295 3.81317 6.76295C3.74442 7.31295 3.55067 7.70108 3.01504 8.36608C2.70129 8.75483 2.65004 8.82608 2.57129 8.98295C2.47129 9.18045 2.44379 9.29108 2.43254 9.54045C2.42067 9.8042 2.44379 9.97483 2.52504 10.2267C2.59567 10.4473 2.66942 10.593 2.85879 10.8842C3.02192 11.1361 3.11629 11.323 3.11629 11.3961C3.11629 11.4542 3.12754 11.4542 3.38067 11.3973C3.98567 11.2617 4.47754 11.0223 4.75379 10.7292C4.92504 10.548 4.96504 10.448 4.96629 10.1992C4.96754 10.0367 4.96192 10.0023 4.91754 9.90858C4.84567 9.7567 4.71442 9.62983 4.42567 9.43358C4.04754 9.1767 3.88629 8.9692 3.84129 8.68483C3.80504 8.45108 3.84754 8.28608 4.05692 7.84983C4.27317 7.39858 4.32692 7.20608 4.36317 6.75108C4.38692 6.45733 4.41942 6.34108 4.50379 6.24795C4.59254 6.15108 4.67254 6.11795 4.89129 6.08858C5.24879 6.03983 5.47629 5.94795 5.66379 5.77608C5.82629 5.62795 5.89379 5.4842 5.90442 5.26858L5.91192 5.10545L5.82129 4.99983C5.49379 4.6192 2.32129 1.88733 2.30067 1.88733C2.29629 1.88733 2.40442 2.02233 2.54067 2.1867ZM3.30067 9.8392C3.33669 9.77612 3.3475 9.70174 3.33092 9.63101C3.31434 9.56028 3.2716 9.49845 3.21129 9.45795C3.09379 9.38045 2.91129 9.4167 2.91129 9.51795C2.91129 9.5492 2.92879 9.57108 2.96754 9.59108C3.03254 9.6242 3.03692 9.6617 2.98629 9.73858C2.93379 9.81608 2.93817 9.8842 2.99754 9.93045C3.09379 10.0055 3.22942 9.9642 3.30067 9.8392ZM6.13754 6.1742C5.97004 6.22545 5.80629 6.40233 5.75629 6.58795C5.72504 6.70045 5.74317 6.8992 5.78942 6.96045C5.86379 7.05983 5.93567 7.08545 6.13067 7.0842C6.51317 7.0817 6.84504 6.91858 6.88379 6.71545C6.91504 6.54795 6.76942 6.3167 6.56879 6.21483C6.46504 6.16233 6.24379 6.1417 6.13754 6.1742ZM6.58442 6.5217C6.64317 6.43858 6.61754 6.34858 6.51754 6.28733C6.32629 6.1717 6.03754 6.26733 6.03754 6.4467C6.03754 6.53608 6.18817 6.63358 6.32629 6.63358C6.41817 6.63358 6.54379 6.5792 6.58442 6.52108" fill="white"/>
</svg>
