<svg width="15" height="18" viewBox="0 0 15 18" fill="none" xmlns="http://www.w3.org/2000/svg">
<g clip-path="url(#clip0_15_238)">
<path fill-rule="evenodd" clip-rule="evenodd" d="M8.66015 6.24587C9.18364 5.97894 9.84974 5.58601 10.5166 5.04765C10.6572 5.34626 10.6726 5.60683 10.6002 5.81724C10.5489 5.96552 10.4521 6.0945 10.3249 6.19711C10.1871 6.308 10.0151 6.38873 9.82492 6.43237C9.46406 6.51549 9.04274 6.46696 8.66015 6.24587ZM8.7509 8.98089L9.44387 9.39021C8.02896 10.2012 7.64431 11.707 7.18739 13.1737C6.73053 11.707 6.34583 10.2012 4.93098 9.39021L5.62394 8.98089C5.69098 8.95498 5.74827 8.90804 5.78762 8.8468C5.82697 8.78555 5.84635 8.71313 5.84299 8.63993C5.7795 7.26636 6.14218 6.65893 6.63139 6.27755C6.80686 6.14093 6.99841 6.07233 7.18739 6.07233C7.37638 6.07233 7.56793 6.14093 7.74346 6.27755C8.23266 6.65893 8.59535 7.26636 8.53186 8.63993C8.52849 8.71313 8.54787 8.78555 8.58722 8.8468C8.62657 8.90804 8.68387 8.95498 8.7509 8.98089ZM7.18739 0.0120239C7.9884 0.0340156 8.79141 0.193032 9.48831 0.502374C9.9709 0.716866 10.4212 1.00019 10.8289 1.33899C11.0131 1.49194 11.1647 1.6397 11.3317 1.8098C11.7822 1.82572 12.4405 1.31397 12.7462 0.835107C12.2202 2.59852 9.8199 4.68096 8.15816 5.4778C8.15748 5.47751 8.15702 5.4771 8.15651 5.47675C7.85828 5.24388 7.52287 5.12745 7.18739 5.12745C6.85192 5.12745 6.51656 5.24388 6.21834 5.47675C6.21782 5.47704 6.21737 5.47757 6.21668 5.4778C4.55489 4.68096 2.15466 2.59852 1.62866 0.835107C1.93424 1.31397 2.59259 1.82572 3.04306 1.8098C3.21014 1.63976 3.36176 1.49194 3.54584 1.33899C3.95359 1.00019 4.40389 0.716866 4.88648 0.502374C5.58344 0.193032 6.38644 0.0340156 7.18739 0.0120239ZM5.71464 6.24587C5.19121 5.97894 4.52505 5.58601 3.85821 5.04765C3.7176 5.34626 3.7022 5.60683 3.77459 5.81724C3.82598 5.96552 3.92273 6.0945 4.04988 6.19711C4.1877 6.308 4.35974 6.38873 4.54992 6.43237C4.91078 6.51549 5.33205 6.46696 5.71464 6.24587Z" fill="white"/>
<path fill-rule="evenodd" clip-rule="evenodd" d="M11.2471 4.38783C11.6143 4.00896 11.9378 3.5896 12.1979 3.21539L12.33 3.46967C12.7553 4.33983 12.9763 5.20648 12.9763 6.18182L12.9754 7.72952L12.9834 8.53183C13.0142 10.5015 13.4309 12.4944 14.375 14.3181L12.3997 12.6893L11.0021 15.0086L9.53382 13.5951L7.1875 17.4888L4.84118 13.5952L3.37293 15.0086L1.97531 12.6894L0 14.3182C0.944072 12.4944 1.36083 10.5016 1.39169 8.53189L1.39968 7.72958L1.39877 6.18188C1.39877 5.20648 1.6197 4.33983 2.04513 3.46973L2.17719 3.21545C2.4373 3.58966 2.76074 4.00896 3.12793 4.38789L3.01327 4.63143C2.79052 5.10446 2.71676 5.63337 2.89029 6.13638C3.00215 6.46036 3.20631 6.7382 3.46951 6.9503C3.72506 7.15628 4.02751 7.29511 4.34416 7.36803C4.55043 7.41551 4.76058 7.43505 4.96936 7.4284C4.92064 7.71079 4.89936 8.00368 4.898 8.30212L3.03472 9.40263L4.47256 10.2268C4.58749 10.2927 4.69689 10.3682 4.79965 10.4525C5.98508 11.5409 6.69778 14.7607 7.18756 16.3335C7.67739 14.7607 8.39004 11.5409 9.57552 10.4525C9.67827 10.3682 9.78768 10.2927 9.90261 10.2268L11.3404 9.40263L9.47712 8.30212C9.47575 8.00368 9.45447 7.71079 9.40576 7.4284C9.61454 7.43505 9.82469 7.41551 10.031 7.36803C10.3476 7.29511 10.6501 7.15628 10.9056 6.9503C11.1687 6.7382 11.373 6.46036 11.4848 6.13638C11.6584 5.63337 11.5845 5.10452 11.3618 4.63143L11.2472 4.38789L11.2471 4.38783Z" fill="white"/>
</g>
<defs>
<clipPath id="clip0_15_238">
<rect width="14.375" height="17.5" fill="white" transform="translate(0 0.0120239)"/>
</clipPath>
</defs>
</svg>
