<svg width="15" height="16" viewBox="0 0 15 16" fill="none" xmlns="http://www.w3.org/2000/svg">
<g clip-path="url(#clip0_15_241)">
<path d="M12.9612 8.97515C12.6993 9.14077 12.3912 9.1614 12.1575 9.02952C11.86 8.86077 11.6962 8.46827 11.6962 7.92077V6.28452C11.6962 5.49452 11.3837 4.93202 10.8612 4.78015C9.97622 4.52202 9.30997 5.60515 9.05997 6.01265L7.49872 8.5439V5.45015C7.48122 4.73765 7.24997 4.31202 6.81122 4.18327C6.51997 4.0989 6.0856 4.13265 5.6631 4.7789L2.16497 10.3958C1.69727 9.50653 1.45315 8.51676 1.45372 7.51202C1.45372 4.12827 4.1656 1.37577 7.49872 1.37577C10.8312 1.37577 13.5425 4.12827 13.5425 7.51202C13.545 7.52327 13.5437 7.53327 13.5443 7.54515C13.5756 8.20077 13.3631 8.72202 12.9612 8.9764V8.97515ZM14.8862 7.51265L14.8856 7.47827C14.8668 3.35765 11.5606 0.0120239 7.4981 0.0120239C3.42497 0.0120239 0.110596 3.3764 0.110596 7.51202C0.110596 11.647 3.42497 15.012 7.4981 15.012C9.36747 15.012 11.1518 14.3014 12.5212 13.012C12.7931 12.7558 12.8087 12.3245 12.5568 12.0489C12.4974 11.9833 12.4255 11.9303 12.3453 11.8929C12.2652 11.8554 12.1783 11.8344 12.0899 11.831C12.0015 11.8275 11.9133 11.8418 11.8304 11.8729C11.7476 11.904 11.6718 11.9513 11.6075 12.012C10.4976 13.0629 9.02717 13.6485 7.49872 13.6483C5.71372 13.6483 4.1081 12.8589 3.0006 11.6058L6.1556 6.54015V8.87577C6.1556 9.99702 6.5906 10.3595 6.9556 10.4658C7.3206 10.572 7.8781 10.4995 8.46372 9.54827C9.08747 8.53952 9.72935 7.48765 10.3531 6.49827V7.92077C10.3531 8.96952 10.7731 9.80827 11.505 10.2208C12.165 10.5939 12.995 10.5601 13.6706 10.1333C14.4906 9.61577 14.9318 8.66202 14.8856 7.51265H14.8862Z" fill="white"/>
</g>
<defs>
<clipPath id="clip0_15_241">
<rect width="15" height="15" fill="white" transform="translate(0 0.0120239)"/>
</clipPath>
</defs>
</svg>
